<?xml version="1.0" encoding="UTF-8" standalone="no"?>
<svg
   xmlns:dc="http://purl.org/dc/elements/1.1/"
   xmlns:cc="http://creativecommons.org/ns#"
   xmlns:rdf="http://www.w3.org/1999/02/22-rdf-syntax-ns#"
   xmlns:svg="http://www.w3.org/2000/svg"
   xmlns="http://www.w3.org/2000/svg"
   id="svg8"
   version="1.1"
   viewBox="0 0 99.999996 100"
   height="100mm"
   width="100mm">
  <defs
     id="defs2">
    <rect
       x="85.553749"
       y="20.672499"
       width="63.410946"
       height="6.3355188"
       id="rect1036" />
  </defs>
  <metadata
     id="metadata5">
    <rdf:RDF>
      <cc:Work
         rdf:about="">
        <dc:format>image/svg+xml</dc:format>
        <dc:type
           rdf:resource="http://purl.org/dc/dcmitype/StillImage" />
        <dc:title></dc:title>
      </cc:Work>
    </rdf:RDF>
  </metadata>
  <g
     id="layer2"
     style="display:inline"
     transform="translate(0.97400475,-1.4317578)">
    <path
       id="path862-7"
       style="display:inline;fill:#69c034;fill-opacity:1;stroke:#000000;stroke-width:0.865;stroke-miterlimit:4;stroke-dasharray:none;stroke-opacity:1"
       d="m 49.073214,7.7897423 c -0.23227,-0.0017 -0.46459,-6.51e-4 -0.69712,0.0031 -0.16147,0.0016 -0.32326,0.003 -0.48472,0.0047 -7.70307,0.158816 -15.09166,3.3195657 -21.17287,7.9297487 -6.54447,4.943276 -11.94035,11.308075 -16.20625,18.285705 -0.42489,0.64139 -0.7879498,1.310353 -0.7477498,2.105298 -0.0392,0.443186 0.9816898,-0.392946 1.1740798,-0.696598 3.32614,-4.885183 7.61186,-9.181997 12.41062,-12.689148 1.219,-0.883465 2.47725,-1.712179 3.76876,-2.485637 -1.43578,6.952171 0.71744,14.506984 5.59087,19.667535 1.7826,1.938895 3.92127,3.525385 6.26525,4.707204 0.67348,-0.877257 1.37558,-1.663311 2.09496,-2.270662 1.04129,-0.879123 3.07165,-0.500226 3.07165,-0.500226 0,0 -4.07336,-7.784463 -6.00273,-11.379151 -1.92937,-3.594687 -4.50211,-9.021339 -3.1719,-13.309783 0.80145,-2.583797 4.0343,-2.6295 5.0183,-0.908988 0.984,1.720508 11.60756,22.294763 11.60756,22.294763 0.36022,-0.03878 0.60047,0.188854 1.16013,-0.293521 0,0 0.16045,-13.197317 0.29869,-16.072405 0.14283,-2.970513 0.0266,-10.019797 5.42241,-9.768396 3.61479,0.168425 3.33397,7.002951 3.13573,10.455693 -0.19823,3.452744 -0.70971,16.518046 -0.5762,17.853173 0.0396,0.395788 0.22739,1.397746 0.45786,2.594674 3.0198,-2.000131 5.56676,-4.715206 7.29206,-7.913212 2.61975,-4.739586 3.42142,-10.446732 2.21072,-15.725138 5.39751,3.218753 10.15461,7.614995 13.89941,12.511898 0.88607,1.119721 1.65046,2.352022 2.45566,3.511413 0.59107,0.446425 1.15067,0.840023 0.85834,-0.197404 -0.10574,-0.898973 -0.83279,-1.598618 -1.24488,-2.389518 -4.70684,-7.211823 -10.59337,-13.764512 -17.75189,-18.613851 -5.87878,-3.998076 -12.93648,-6.6580407 -20.13675,-6.7112187 z m -12.52844,40.5231067 c -0.47295,0.192966 -0.9031,0.405638 -1.28157,0.638204 -1.75995,1.08148 -4.02147,3.156546 -5.20227,4.773354 -1.412,1.933371 -3.61467,5.959871 -4.07882,7.456392 -0.18053,0.582088 -0.86563,2.308487 -1.52239,3.836458 -1.02027,2.373654 -1.50718,3.124814 -3.34501,5.159375 -3.82359,4.23291 -4.69717,5.496711 -5.16093,7.466211 -0.46927,1.992897 -0.34271,3.409513 0.38137,4.270023 0.77884,0.92561 2.23574,1.485963 3.22099,1.238684 1.24087,-0.311441 3.06423,-1.772489 6.843,-5.482868 2.48614,-2.441162 3.91427,-3.655592 4.29948,-3.655592 0.90407,0 0.71673,0.653598 -1.03766,3.617868 -2.00196,3.382531 -2.67666,5.39438 -2.69906,8.046018 -0.0198,2.352702 0.6175,3.713473 1.95905,4.181142 1.08725,0.37901 3.02263,-0.05259 4.53357,-1.01079 1.36534,-0.865873 4.34281,-4.70448 5.99447,-7.728728 1.85914,-3.404161 2.53425,-4.195093 3.58324,-4.195093 1.30396,0 1.79707,0.599898 1.60197,1.948717 -0.087,0.60167 -0.1813,3.53477 -0.2098,6.517949 -0.0463,4.843431 8.8e-4,5.52308 0.44079,6.35 1.66751,3.134501 5.10488,4.27804 7.48585,2.490288 2.0354,-1.52826 2.72414,-4.478732 2.73213,-11.701611 0.003,-2.459932 0.12298,-4.537006 0.27906,-4.828646 0.19869,-0.37126 0.55595,-0.512114 1.30225,-0.512114 1.38621,0 2.32694,0.835536 3.80803,3.381706 2.06633,3.55224 6.32982,9.378246 7.53649,10.298596 1.53572,1.17134 2.95402,1.197478 4.49223,0.0832 1.50732,-1.091891 1.98251,-2.130031 2.00092,-4.370793 0.0142,-1.734179 -0.0934,-2.08744 -1.69241,-5.552114 -0.93924,-2.03513 -2.28506,-4.654497 -2.99051,-5.820833 -2.11645,-3.499123 -3.00334,-5.462707 -3.33262,-7.37733 -0.17187,-0.999291 -0.26285,-1.866214 -0.20205,-1.927013 0.19606,-0.196062 5.98337,2.284918 9.14673,3.921207 2.46892,1.27708 3.39148,1.617154 4.69635,1.732195 2.1709,0.191381 4.32468,-0.484036 5.69216,-1.784905 1.97608,-1.879801 1.1888,-3.545028 -2.81171,-5.945373 -2.9534,-1.772052 -8.34456,-5.887013 -10.72235,-8.184512 -2.7301,-2.637901 -3.93707,-3.475905 -7.46414,-5.182113 -0.76568,-0.370396 -1.48531,-0.687507 -2.19263,-0.964282 0.1954,1.202478 0.34623,2.298795 0.39687,3.100067 0.19567,3.095699 -0.42352,8.423571 -2.96777,13.56093 -2.13259,4.306104 -4.4422,4.420513 -7.95714,4.564579 -4.50584,0.184755 -8.2149,-0.644258 -10.83655,-2.415355 -2.7539,-1.860436 -6.55353,-6.903553 -6.8957,-10.155455 -0.38182,-3.629162 -0.28574,-5.315846 0.28163,-6.392888 0.54364,-1.032008 1.1864,-2.231602 1.89446,-3.444755 z" />
  </g>
</svg>
